# xmcd
#
# Track frame offsets:
#	150
#	33510
#	51664
#
# Disc length: 901 seconds
# Revision: 0
# Processed by: cddbd v1.5.2PL0 Copyright (c) Steve Scherf et al.
# Submitted via: dBpowerAMP V12.0
#
DISCID=26038303
DTITLE=Shania Twain - From This Moment On
DYEAR=1998
DGENRE=House
TTITLE0=From This Moment On [Soul Solution Remix Extended Version]
TTITLE1=From This Moment On [Soul Solution Remix Radio Edit]
TTITLE2=From This Moment On [Soul Solution Bonus Beats]
EXTD=
EXTT0=
EXTT1=
EXTT2=
PLAYORDER=
